<?xml version="1.0" encoding="utf-8" standalone="no"?>
<!DOCTYPE svg PUBLIC "-//W3C//DTD SVG 1.1//EN"
  "http://www.w3.org/Graphics/SVG/1.1/DTD/svg11.dtd">
<!-- Created with matplotlib (https://matplotlib.org/) -->
<svg height="288pt" version="1.1" viewBox="0 0 432 288" width="432pt" xmlns="http://www.w3.org/2000/svg" xmlns:xlink="http://www.w3.org/1999/xlink">
 <defs>
  <style type="text/css">
*{stroke-linecap:butt;stroke-linejoin:round;}
  </style>
 </defs>
 <g id="figure_1">
  <g id="patch_1">
   <path d="M 0 288 
L 432 288 
L 432 0 
L 0 0 
z
" style="fill:#ffffff;"/>
  </g>
  <g id="axes_1">
   <g id="patch_2">
    <path d="M 54 252 
L 388.8 252 
L 388.8 34.56 
L 54 34.56 
z
" style="fill:#ffffff;"/>
   </g>
   <g id="matplotlib.axis_1">
    <g id="xtick_1">
     <g id="line2d_1">
      <defs>
       <path d="M 0 0 
L 0 3.5 
" id="me3a61a38d1" style="stroke:#000000;stroke-width:0.8;"/>
      </defs>
      <g>
       <use style="stroke:#000000;stroke-width:0.8;" x="221.4" xlink:href="#me3a61a38d1" y="252"/>
      </g>
     </g>
     <g id="text_1">
      <!-- 1 -->
      <defs>
       <path d="M 12.40625 8.296875 
L 28.515625 8.296875 
L 28.515625 63.921875 
L 10.984375 60.40625 
L 10.984375 69.390625 
L 28.421875 72.90625 
L 38.28125 72.90625 
L 38.28125 8.296875 
L 54.390625 8.296875 
L 54.390625 0 
L 12.40625 0 
z
" id="DejaVuSans-49"/>
      </defs>
      <g transform="translate(218.21875 266.598437)scale(0.1 -0.1)">
       <use xlink:href="#DejaVuSans-49"/>
      </g>
     </g>
    </g>
   </g>
   <g id="matplotlib.axis_2">
    <g id="ytick_1">
     <g id="line2d_2">
      <defs>
       <path d="M 0 0 
L -3.5 0 
" id="mf0c87367e6" style="stroke:#000000;stroke-width:0.8;"/>
      </defs>
      <g>
       <use style="stroke:#000000;stroke-width:0.8;" x="54" xlink:href="#mf0c87367e6" y="245.249304"/>
      </g>
     </g>
     <g id="text_2">
      <!-- 0 -->
      <defs>
       <path d="M 31.78125 66.40625 
Q 24.171875 66.40625 20.328125 58.90625 
Q 16.5 51.421875 16.5 36.375 
Q 16.5 21.390625 20.328125 13.890625 
Q 24.171875 6.390625 31.78125 6.390625 
Q 39.453125 6.390625 43.28125 13.890625 
Q 47.125 21.390625 47.125 36.375 
Q 47.125 51.421875 43.28125 58.90625 
Q 39.453125 66.40625 31.78125 66.40625 
z
M 31.78125 74.21875 
Q 44.046875 74.21875 50.515625 64.515625 
Q 56.984375 54.828125 56.984375 36.375 
Q 56.984375 17.96875 50.515625 8.265625 
Q 44.046875 -1.421875 31.78125 -1.421875 
Q 19.53125 -1.421875 13.0625 8.265625 
Q 6.59375 17.96875 6.59375 36.375 
Q 6.59375 54.828125 13.0625 64.515625 
Q 19.53125 74.21875 31.78125 74.21875 
z
" id="DejaVuSans-48"/>
      </defs>
      <g transform="translate(40.6375 249.048522)scale(0.1 -0.1)">
       <use xlink:href="#DejaVuSans-48"/>
      </g>
     </g>
    </g>
    <g id="ytick_2">
     <g id="line2d_3">
      <g>
       <use style="stroke:#000000;stroke-width:0.8;" x="54" xlink:href="#mf0c87367e6" y="208.980176"/>
      </g>
     </g>
     <g id="text_3">
      <!-- 20 -->
      <defs>
       <path d="M 19.1875 8.296875 
L 53.609375 8.296875 
L 53.609375 0 
L 7.328125 0 
L 7.328125 8.296875 
Q 12.9375 14.109375 22.625 23.890625 
Q 32.328125 33.6875 34.8125 36.53125 
Q 39.546875 41.84375 41.421875 45.53125 
Q 43.3125 49.21875 43.3125 52.78125 
Q 43.3125 58.59375 39.234375 62.25 
Q 35.15625 65.921875 28.609375 65.921875 
Q 23.96875 65.921875 18.8125 64.3125 
Q 13.671875 62.703125 7.8125 59.421875 
L 7.8125 69.390625 
Q 13.765625 71.78125 18.9375 73 
Q 24.125 74.21875 28.421875 74.21875 
Q 39.75 74.21875 46.484375 68.546875 
Q 53.21875 62.890625 53.21875 53.421875 
Q 53.21875 48.921875 51.53125 44.890625 
Q 49.859375 40.875 45.40625 35.40625 
Q 44.1875 33.984375 37.640625 27.21875 
Q 31.109375 20.453125 19.1875 8.296875 
z
" id="DejaVuSans-50"/>
      </defs>
      <g transform="translate(34.275 212.779395)scale(0.1 -0.1)">
       <use xlink:href="#DejaVuSans-50"/>
       <use x="63.623047" xlink:href="#DejaVuSans-48"/>
      </g>
     </g>
    </g>
    <g id="ytick_3">
     <g id="line2d_4">
      <g>
       <use style="stroke:#000000;stroke-width:0.8;" x="54" xlink:href="#mf0c87367e6" y="172.711049"/>
      </g>
     </g>
     <g id="text_4">
      <!-- 40 -->
      <defs>
       <path d="M 37.796875 64.3125 
L 12.890625 25.390625 
L 37.796875 25.390625 
z
M 35.203125 72.90625 
L 47.609375 72.90625 
L 47.609375 25.390625 
L 58.015625 25.390625 
L 58.015625 17.1875 
L 47.609375 17.1875 
L 47.609375 0 
L 37.796875 0 
L 37.796875 17.1875 
L 4.890625 17.1875 
L 4.890625 26.703125 
z
" id="DejaVuSans-52"/>
      </defs>
      <g transform="translate(34.275 176.510268)scale(0.1 -0.1)">
       <use xlink:href="#DejaVuSans-52"/>
       <use x="63.623047" xlink:href="#DejaVuSans-48"/>
      </g>
     </g>
    </g>
    <g id="ytick_4">
     <g id="line2d_5">
      <g>
       <use style="stroke:#000000;stroke-width:0.8;" x="54" xlink:href="#mf0c87367e6" y="136.441922"/>
      </g>
     </g>
     <g id="text_5">
      <!-- 60 -->
      <defs>
       <path d="M 33.015625 40.375 
Q 26.375 40.375 22.484375 35.828125 
Q 18.609375 31.296875 18.609375 23.390625 
Q 18.609375 15.53125 22.484375 10.953125 
Q 26.375 6.390625 33.015625 6.390625 
Q 39.65625 6.390625 43.53125 10.953125 
Q 47.40625 15.53125 47.40625 23.390625 
Q 47.40625 31.296875 43.53125 35.828125 
Q 39.65625 40.375 33.015625 40.375 
z
M 52.59375 71.296875 
L 52.59375 62.3125 
Q 48.875 64.0625 45.09375 64.984375 
Q 41.3125 65.921875 37.59375 65.921875 
Q 27.828125 65.921875 22.671875 59.328125 
Q 17.53125 52.734375 16.796875 39.40625 
Q 19.671875 43.65625 24.015625 45.921875 
Q 28.375 48.1875 33.59375 48.1875 
Q 44.578125 48.1875 50.953125 41.515625 
Q 57.328125 34.859375 57.328125 23.390625 
Q 57.328125 12.15625 50.6875 5.359375 
Q 44.046875 -1.421875 33.015625 -1.421875 
Q 20.359375 -1.421875 13.671875 8.265625 
Q 6.984375 17.96875 6.984375 36.375 
Q 6.984375 53.65625 15.1875 63.9375 
Q 23.390625 74.21875 37.203125 74.21875 
Q 40.921875 74.21875 44.703125 73.484375 
Q 48.484375 72.75 52.59375 71.296875 
z
" id="DejaVuSans-54"/>
      </defs>
      <g transform="translate(34.275 140.241141)scale(0.1 -0.1)">
       <use xlink:href="#DejaVuSans-54"/>
       <use x="63.623047" xlink:href="#DejaVuSans-48"/>
      </g>
     </g>
    </g>
    <g id="ytick_5">
     <g id="line2d_6">
      <g>
       <use style="stroke:#000000;stroke-width:0.8;" x="54" xlink:href="#mf0c87367e6" y="100.172795"/>
      </g>
     </g>
     <g id="text_6">
      <!-- 80 -->
      <defs>
       <path d="M 31.78125 34.625 
Q 24.75 34.625 20.71875 30.859375 
Q 16.703125 27.09375 16.703125 20.515625 
Q 16.703125 13.921875 20.71875 10.15625 
Q 24.75 6.390625 31.78125 6.390625 
Q 38.8125 6.390625 42.859375 10.171875 
Q 46.921875 13.96875 46.921875 20.515625 
Q 46.921875 27.09375 42.890625 30.859375 
Q 38.875 34.625 31.78125 34.625 
z
M 21.921875 38.8125 
Q 15.578125 40.375 12.03125 44.71875 
Q 8.5 49.078125 8.5 55.328125 
Q 8.5 64.0625 14.71875 69.140625 
Q 20.953125 74.21875 31.78125 74.21875 
Q 42.671875 74.21875 48.875 69.140625 
Q 55.078125 64.0625 55.078125 55.328125 
Q 55.078125 49.078125 51.53125 44.71875 
Q 48 40.375 41.703125 38.8125 
Q 48.828125 37.15625 52.796875 32.3125 
Q 56.78125 27.484375 56.78125 20.515625 
Q 56.78125 9.90625 50.3125 4.234375 
Q 43.84375 -1.421875 31.78125 -1.421875 
Q 19.734375 -1.421875 13.25 4.234375 
Q 6.78125 9.90625 6.78125 20.515625 
Q 6.78125 27.484375 10.78125 32.3125 
Q 14.796875 37.15625 21.921875 38.8125 
z
M 18.3125 54.390625 
Q 18.3125 48.734375 21.84375 45.5625 
Q 25.390625 42.390625 31.78125 42.390625 
Q 38.140625 42.390625 41.71875 45.5625 
Q 45.3125 48.734375 45.3125 54.390625 
Q 45.3125 60.0625 41.71875 63.234375 
Q 38.140625 66.40625 31.78125 66.40625 
Q 25.390625 66.40625 21.84375 63.234375 
Q 18.3125 60.0625 18.3125 54.390625 
z
" id="DejaVuSans-56"/>
      </defs>
      <g transform="translate(34.275 103.972014)scale(0.1 -0.1)">
       <use xlink:href="#DejaVuSans-56"/>
       <use x="63.623047" xlink:href="#DejaVuSans-48"/>
      </g>
     </g>
    </g>
    <g id="ytick_6">
     <g id="line2d_7">
      <g>
       <use style="stroke:#000000;stroke-width:0.8;" x="54" xlink:href="#mf0c87367e6" y="63.903668"/>
      </g>
     </g>
     <g id="text_7">
      <!-- 100 -->
      <g transform="translate(27.9125 67.702887)scale(0.1 -0.1)">
       <use xlink:href="#DejaVuSans-49"/>
       <use x="63.623047" xlink:href="#DejaVuSans-48"/>
       <use x="127.246094" xlink:href="#DejaVuSans-48"/>
      </g>
     </g>
    </g>
   </g>
   <g id="line2d_8">
    <path clip-path="url(#p7d6fd07e93)" d="M 196.29 240.902933 
L 246.51 240.902933 
L 246.51 239.992838 
L 196.29 239.992838 
L 196.29 240.902933 
" style="fill:none;stroke:#000000;stroke-linecap:square;"/>
   </g>
   <g id="line2d_9">
    <path clip-path="url(#p7d6fd07e93)" d="M 221.4 240.902933 
L 221.4 242.116364 
" style="fill:none;stroke:#000000;stroke-linecap:square;"/>
   </g>
   <g id="line2d_10">
    <path clip-path="url(#p7d6fd07e93)" d="M 221.4 239.992838 
L 221.4 238.635363 
" style="fill:none;stroke:#000000;stroke-linecap:square;"/>
   </g>
   <g id="line2d_11">
    <path clip-path="url(#p7d6fd07e93)" d="M 208.845 242.116364 
L 233.955 242.116364 
" style="fill:none;stroke:#000000;stroke-linecap:square;"/>
   </g>
   <g id="line2d_12">
    <path clip-path="url(#p7d6fd07e93)" d="M 208.845 238.635363 
L 233.955 238.635363 
" style="fill:none;stroke:#000000;stroke-linecap:square;"/>
   </g>
   <g id="line2d_13">
    <defs>
     <path d="M 0 3 
C 0.795609 3 1.55874 2.683901 2.12132 2.12132 
C 2.683901 1.55874 3 0.795609 3 0 
C 3 -0.795609 2.683901 -1.55874 2.12132 -2.12132 
C 1.55874 -2.683901 0.795609 -3 0 -3 
C -0.795609 -3 -1.55874 -2.683901 -2.12132 -2.12132 
C -2.683901 -1.55874 -3 -0.795609 -3 0 
C -3 0.795609 -2.683901 1.55874 -2.12132 2.12132 
C -1.55874 2.683901 -0.795609 3 0 3 
z
" id="m6bc9e52359" style="stroke:#000000;"/>
    </defs>
    <g clip-path="url(#p7d6fd07e93)">
     <use style="fill-opacity:0;stroke:#000000;" x="221.4" xlink:href="#m6bc9e52359" y="238.41805"/>
     <use style="fill-opacity:0;stroke:#000000;" x="221.4" xlink:href="#m6bc9e52359" y="234.188208"/>
     <use style="fill-opacity:0;stroke:#000000;" x="221.4" xlink:href="#m6bc9e52359" y="234.781983"/>
     <use style="fill-opacity:0;stroke:#000000;" x="221.4" xlink:href="#m6bc9e52359" y="237.651866"/>
     <use style="fill-opacity:0;stroke:#000000;" x="221.4" xlink:href="#m6bc9e52359" y="236.620896"/>
     <use style="fill-opacity:0;stroke:#000000;" x="221.4" xlink:href="#m6bc9e52359" y="236.825683"/>
     <use style="fill-opacity:0;stroke:#000000;" x="221.4" xlink:href="#m6bc9e52359" y="238.075928"/>
     <use style="fill-opacity:0;stroke:#000000;" x="221.4" xlink:href="#m6bc9e52359" y="238.384076"/>
     <use style="fill-opacity:0;stroke:#000000;" x="221.4" xlink:href="#m6bc9e52359" y="233.512016"/>
     <use style="fill-opacity:0;stroke:#000000;" x="221.4" xlink:href="#m6bc9e52359" y="233.961118"/>
     <use style="fill-opacity:0;stroke:#000000;" x="221.4" xlink:href="#m6bc9e52359" y="238.487786"/>
     <use style="fill-opacity:0;stroke:#000000;" x="221.4" xlink:href="#m6bc9e52359" y="235.662584"/>
     <use style="fill-opacity:0;stroke:#000000;" x="221.4" xlink:href="#m6bc9e52359" y="235.683601"/>
     <use style="fill-opacity:0;stroke:#000000;" x="221.4" xlink:href="#m6bc9e52359" y="238.138103"/>
     <use style="fill-opacity:0;stroke:#000000;" x="221.4" xlink:href="#m6bc9e52359" y="238.349227"/>
     <use style="fill-opacity:0;stroke:#000000;" x="221.4" xlink:href="#m6bc9e52359" y="238.208173"/>
     <use style="fill-opacity:0;stroke:#000000;" x="221.4" xlink:href="#m6bc9e52359" y="234.885571"/>
     <use style="fill-opacity:0;stroke:#000000;" x="221.4" xlink:href="#m6bc9e52359" y="233.982831"/>
     <use style="fill-opacity:0;stroke:#000000;" x="221.4" xlink:href="#m6bc9e52359" y="238.199891"/>
     <use style="fill-opacity:0;stroke:#000000;" x="221.4" xlink:href="#m6bc9e52359" y="238.413739"/>
     <use style="fill-opacity:0;stroke:#000000;" x="221.4" xlink:href="#m6bc9e52359" y="238.383842"/>
     <use style="fill-opacity:0;stroke:#000000;" x="221.4" xlink:href="#m6bc9e52359" y="238.496021"/>
     <use style="fill-opacity:0;stroke:#000000;" x="221.4" xlink:href="#m6bc9e52359" y="234.666718"/>
     <use style="fill-opacity:0;stroke:#000000;" x="221.4" xlink:href="#m6bc9e52359" y="233.16848"/>
     <use style="fill-opacity:0;stroke:#000000;" x="221.4" xlink:href="#m6bc9e52359" y="236.195195"/>
     <use style="fill-opacity:0;stroke:#000000;" x="221.4" xlink:href="#m6bc9e52359" y="236.717593"/>
     <use style="fill-opacity:0;stroke:#000000;" x="221.4" xlink:href="#m6bc9e52359" y="236.384982"/>
     <use style="fill-opacity:0;stroke:#000000;" x="221.4" xlink:href="#m6bc9e52359" y="236.622581"/>
     <use style="fill-opacity:0;stroke:#000000;" x="221.4" xlink:href="#m6bc9e52359" y="236.420411"/>
     <use style="fill-opacity:0;stroke:#000000;" x="221.4" xlink:href="#m6bc9e52359" y="236.473187"/>
     <use style="fill-opacity:0;stroke:#000000;" x="221.4" xlink:href="#m6bc9e52359" y="237.599896"/>
     <use style="fill-opacity:0;stroke:#000000;" x="221.4" xlink:href="#m6bc9e52359" y="236.120245"/>
     <use style="fill-opacity:0;stroke:#000000;" x="221.4" xlink:href="#m6bc9e52359" y="237.706687"/>
     <use style="fill-opacity:0;stroke:#000000;" x="221.4" xlink:href="#m6bc9e52359" y="235.306739"/>
     <use style="fill-opacity:0;stroke:#000000;" x="221.4" xlink:href="#m6bc9e52359" y="235.548518"/>
     <use style="fill-opacity:0;stroke:#000000;" x="221.4" xlink:href="#m6bc9e52359" y="235.261317"/>
     <use style="fill-opacity:0;stroke:#000000;" x="221.4" xlink:href="#m6bc9e52359" y="236.984754"/>
     <use style="fill-opacity:0;stroke:#000000;" x="221.4" xlink:href="#m6bc9e52359" y="235.333611"/>
     <use style="fill-opacity:0;stroke:#000000;" x="221.4" xlink:href="#m6bc9e52359" y="237.428537"/>
     <use style="fill-opacity:0;stroke:#000000;" x="221.4" xlink:href="#m6bc9e52359" y="236.434252"/>
     <use style="fill-opacity:0;stroke:#000000;" x="221.4" xlink:href="#m6bc9e52359" y="238.073805"/>
     <use style="fill-opacity:0;stroke:#000000;" x="221.4" xlink:href="#m6bc9e52359" y="238.546999"/>
     <use style="fill-opacity:0;stroke:#000000;" x="221.4" xlink:href="#m6bc9e52359" y="237.932383"/>
     <use style="fill-opacity:0;stroke:#000000;" x="221.4" xlink:href="#m6bc9e52359" y="237.981627"/>
     <use style="fill-opacity:0;stroke:#000000;" x="221.4" xlink:href="#m6bc9e52359" y="237.969876"/>
     <use style="fill-opacity:0;stroke:#000000;" x="221.4" xlink:href="#m6bc9e52359" y="238.410843"/>
     <use style="fill-opacity:0;stroke:#000000;" x="221.4" xlink:href="#m6bc9e52359" y="238.441741"/>
     <use style="fill-opacity:0;stroke:#000000;" x="221.4" xlink:href="#m6bc9e52359" y="236.992689"/>
     <use style="fill-opacity:0;stroke:#000000;" x="221.4" xlink:href="#m6bc9e52359" y="232.127799"/>
     <use style="fill-opacity:0;stroke:#000000;" x="221.4" xlink:href="#m6bc9e52359" y="235.632579"/>
     <use style="fill-opacity:0;stroke:#000000;" x="221.4" xlink:href="#m6bc9e52359" y="235.943708"/>
     <use style="fill-opacity:0;stroke:#000000;" x="221.4" xlink:href="#m6bc9e52359" y="238.585949"/>
     <use style="fill-opacity:0;stroke:#000000;" x="221.4" xlink:href="#m6bc9e52359" y="238.626731"/>
     <use style="fill-opacity:0;stroke:#000000;" x="221.4" xlink:href="#m6bc9e52359" y="236.226827"/>
     <use style="fill-opacity:0;stroke:#000000;" x="221.4" xlink:href="#m6bc9e52359" y="237.943909"/>
     <use style="fill-opacity:0;stroke:#000000;" x="221.4" xlink:href="#m6bc9e52359" y="231.873716"/>
     <use style="fill-opacity:0;stroke:#000000;" x="221.4" xlink:href="#m6bc9e52359" y="238.156493"/>
     <use style="fill-opacity:0;stroke:#000000;" x="221.4" xlink:href="#m6bc9e52359" y="238.332079"/>
     <use style="fill-opacity:0;stroke:#000000;" x="221.4" xlink:href="#m6bc9e52359" y="235.927286"/>
     <use style="fill-opacity:0;stroke:#000000;" x="221.4" xlink:href="#m6bc9e52359" y="237.556585"/>
     <use style="fill-opacity:0;stroke:#000000;" x="221.4" xlink:href="#m6bc9e52359" y="238.620732"/>
     <use style="fill-opacity:0;stroke:#000000;" x="221.4" xlink:href="#m6bc9e52359" y="237.794215"/>
     <use style="fill-opacity:0;stroke:#000000;" x="221.4" xlink:href="#m6bc9e52359" y="238.320208"/>
     <use style="fill-opacity:0;stroke:#000000;" x="221.4" xlink:href="#m6bc9e52359" y="234.815118"/>
     <use style="fill-opacity:0;stroke:#000000;" x="221.4" xlink:href="#m6bc9e52359" y="238.616815"/>
     <use style="fill-opacity:0;stroke:#000000;" x="221.4" xlink:href="#m6bc9e52359" y="236.113424"/>
     <use style="fill-opacity:0;stroke:#000000;" x="221.4" xlink:href="#m6bc9e52359" y="235.937885"/>
     <use style="fill-opacity:0;stroke:#000000;" x="221.4" xlink:href="#m6bc9e52359" y="238.618578"/>
     <use style="fill-opacity:0;stroke:#000000;" x="221.4" xlink:href="#m6bc9e52359" y="236.296502"/>
     <use style="fill-opacity:0;stroke:#000000;" x="221.4" xlink:href="#m6bc9e52359" y="234.903609"/>
     <use style="fill-opacity:0;stroke:#000000;" x="221.4" xlink:href="#m6bc9e52359" y="235.95635"/>
     <use style="fill-opacity:0;stroke:#000000;" x="221.4" xlink:href="#m6bc9e52359" y="235.705081"/>
     <use style="fill-opacity:0;stroke:#000000;" x="221.4" xlink:href="#m6bc9e52359" y="233.578568"/>
     <use style="fill-opacity:0;stroke:#000000;" x="221.4" xlink:href="#m6bc9e52359" y="236.373082"/>
     <use style="fill-opacity:0;stroke:#000000;" x="221.4" xlink:href="#m6bc9e52359" y="235.854726"/>
     <use style="fill-opacity:0;stroke:#000000;" x="221.4" xlink:href="#m6bc9e52359" y="236.369143"/>
     <use style="fill-opacity:0;stroke:#000000;" x="221.4" xlink:href="#m6bc9e52359" y="236.349222"/>
     <use style="fill-opacity:0;stroke:#000000;" x="221.4" xlink:href="#m6bc9e52359" y="235.902749"/>
     <use style="fill-opacity:0;stroke:#000000;" x="221.4" xlink:href="#m6bc9e52359" y="235.548237"/>
     <use style="fill-opacity:0;stroke:#000000;" x="221.4" xlink:href="#m6bc9e52359" y="236.098456"/>
     <use style="fill-opacity:0;stroke:#000000;" x="221.4" xlink:href="#m6bc9e52359" y="235.999026"/>
     <use style="fill-opacity:0;stroke:#000000;" x="221.4" xlink:href="#m6bc9e52359" y="235.665684"/>
     <use style="fill-opacity:0;stroke:#000000;" x="221.4" xlink:href="#m6bc9e52359" y="236.959258"/>
     <use style="fill-opacity:0;stroke:#000000;" x="221.4" xlink:href="#m6bc9e52359" y="235.988254"/>
     <use style="fill-opacity:0;stroke:#000000;" x="221.4" xlink:href="#m6bc9e52359" y="237.218271"/>
     <use style="fill-opacity:0;stroke:#000000;" x="221.4" xlink:href="#m6bc9e52359" y="237.173342"/>
     <use style="fill-opacity:0;stroke:#000000;" x="221.4" xlink:href="#m6bc9e52359" y="238.213135"/>
     <use style="fill-opacity:0;stroke:#000000;" x="221.4" xlink:href="#m6bc9e52359" y="233.851854"/>
     <use style="fill-opacity:0;stroke:#000000;" x="221.4" xlink:href="#m6bc9e52359" y="233.025987"/>
     <use style="fill-opacity:0;stroke:#000000;" x="221.4" xlink:href="#m6bc9e52359" y="237.11214"/>
     <use style="fill-opacity:0;stroke:#000000;" x="221.4" xlink:href="#m6bc9e52359" y="238.550849"/>
     <use style="fill-opacity:0;stroke:#000000;" x="221.4" xlink:href="#m6bc9e52359" y="235.505817"/>
     <use style="fill-opacity:0;stroke:#000000;" x="221.4" xlink:href="#m6bc9e52359" y="235.717527"/>
     <use style="fill-opacity:0;stroke:#000000;" x="221.4" xlink:href="#m6bc9e52359" y="238.297098"/>
     <use style="fill-opacity:0;stroke:#000000;" x="221.4" xlink:href="#m6bc9e52359" y="235.464169"/>
     <use style="fill-opacity:0;stroke:#000000;" x="221.4" xlink:href="#m6bc9e52359" y="236.399988"/>
     <use style="fill-opacity:0;stroke:#000000;" x="221.4" xlink:href="#m6bc9e52359" y="238.251727"/>
     <use style="fill-opacity:0;stroke:#000000;" x="221.4" xlink:href="#m6bc9e52359" y="232.730641"/>
     <use style="fill-opacity:0;stroke:#000000;" x="221.4" xlink:href="#m6bc9e52359" y="233.707227"/>
     <use style="fill-opacity:0;stroke:#000000;" x="221.4" xlink:href="#m6bc9e52359" y="238.390801"/>
     <use style="fill-opacity:0;stroke:#000000;" x="221.4" xlink:href="#m6bc9e52359" y="233.783049"/>
     <use style="fill-opacity:0;stroke:#000000;" x="221.4" xlink:href="#m6bc9e52359" y="238.596672"/>
     <use style="fill-opacity:0;stroke:#000000;" x="221.4" xlink:href="#m6bc9e52359" y="232.549449"/>
     <use style="fill-opacity:0;stroke:#000000;" x="221.4" xlink:href="#m6bc9e52359" y="233.751767"/>
     <use style="fill-opacity:0;stroke:#000000;" x="221.4" xlink:href="#m6bc9e52359" y="238.119756"/>
     <use style="fill-opacity:0;stroke:#000000;" x="221.4" xlink:href="#m6bc9e52359" y="238.497869"/>
     <use style="fill-opacity:0;stroke:#000000;" x="221.4" xlink:href="#m6bc9e52359" y="238.159821"/>
     <use style="fill-opacity:0;stroke:#000000;" x="221.4" xlink:href="#m6bc9e52359" y="238.622366"/>
     <use style="fill-opacity:0;stroke:#000000;" x="221.4" xlink:href="#m6bc9e52359" y="233.371219"/>
     <use style="fill-opacity:0;stroke:#000000;" x="221.4" xlink:href="#m6bc9e52359" y="238.502765"/>
     <use style="fill-opacity:0;stroke:#000000;" x="221.4" xlink:href="#m6bc9e52359" y="233.9365"/>
     <use style="fill-opacity:0;stroke:#000000;" x="221.4" xlink:href="#m6bc9e52359" y="44.443636"/>
     <use style="fill-opacity:0;stroke:#000000;" x="221.4" xlink:href="#m6bc9e52359" y="235.973093"/>
     <use style="fill-opacity:0;stroke:#000000;" x="221.4" xlink:href="#m6bc9e52359" y="235.30393"/>
     <use style="fill-opacity:0;stroke:#000000;" x="221.4" xlink:href="#m6bc9e52359" y="238.193975"/>
     <use style="fill-opacity:0;stroke:#000000;" x="221.4" xlink:href="#m6bc9e52359" y="238.373395"/>
     <use style="fill-opacity:0;stroke:#000000;" x="221.4" xlink:href="#m6bc9e52359" y="238.565828"/>
     <use style="fill-opacity:0;stroke:#000000;" x="221.4" xlink:href="#m6bc9e52359" y="237.941142"/>
     <use style="fill-opacity:0;stroke:#000000;" x="221.4" xlink:href="#m6bc9e52359" y="238.258533"/>
     <use style="fill-opacity:0;stroke:#000000;" x="221.4" xlink:href="#m6bc9e52359" y="238.534182"/>
     <use style="fill-opacity:0;stroke:#000000;" x="221.4" xlink:href="#m6bc9e52359" y="235.103251"/>
     <use style="fill-opacity:0;stroke:#000000;" x="221.4" xlink:href="#m6bc9e52359" y="238.09145"/>
     <use style="fill-opacity:0;stroke:#000000;" x="221.4" xlink:href="#m6bc9e52359" y="238.328032"/>
     <use style="fill-opacity:0;stroke:#000000;" x="221.4" xlink:href="#m6bc9e52359" y="234.508575"/>
     <use style="fill-opacity:0;stroke:#000000;" x="221.4" xlink:href="#m6bc9e52359" y="234.022482"/>
     <use style="fill-opacity:0;stroke:#000000;" x="221.4" xlink:href="#m6bc9e52359" y="236.903587"/>
     <use style="fill-opacity:0;stroke:#000000;" x="221.4" xlink:href="#m6bc9e52359" y="238.617064"/>
     <use style="fill-opacity:0;stroke:#000000;" x="221.4" xlink:href="#m6bc9e52359" y="238.471561"/>
     <use style="fill-opacity:0;stroke:#000000;" x="221.4" xlink:href="#m6bc9e52359" y="238.603628"/>
     <use style="fill-opacity:0;stroke:#000000;" x="221.4" xlink:href="#m6bc9e52359" y="236.213021"/>
     <use style="fill-opacity:0;stroke:#000000;" x="221.4" xlink:href="#m6bc9e52359" y="235.072061"/>
     <use style="fill-opacity:0;stroke:#000000;" x="221.4" xlink:href="#m6bc9e52359" y="237.99736"/>
     <use style="fill-opacity:0;stroke:#000000;" x="221.4" xlink:href="#m6bc9e52359" y="238.229463"/>
     <use style="fill-opacity:0;stroke:#000000;" x="221.4" xlink:href="#m6bc9e52359" y="237.923712"/>
     <use style="fill-opacity:0;stroke:#000000;" x="221.4" xlink:href="#m6bc9e52359" y="237.89206"/>
     <use style="fill-opacity:0;stroke:#000000;" x="221.4" xlink:href="#m6bc9e52359" y="233.310045"/>
     <use style="fill-opacity:0;stroke:#000000;" x="221.4" xlink:href="#m6bc9e52359" y="232.882532"/>
     <use style="fill-opacity:0;stroke:#000000;" x="221.4" xlink:href="#m6bc9e52359" y="238.122578"/>
     <use style="fill-opacity:0;stroke:#000000;" x="221.4" xlink:href="#m6bc9e52359" y="238.589071"/>
     <use style="fill-opacity:0;stroke:#000000;" x="221.4" xlink:href="#m6bc9e52359" y="238.195314"/>
     <use style="fill-opacity:0;stroke:#000000;" x="221.4" xlink:href="#m6bc9e52359" y="238.022464"/>
     <use style="fill-opacity:0;stroke:#000000;" x="221.4" xlink:href="#m6bc9e52359" y="238.613265"/>
     <use style="fill-opacity:0;stroke:#000000;" x="221.4" xlink:href="#m6bc9e52359" y="237.736517"/>
     <use style="fill-opacity:0;stroke:#000000;" x="221.4" xlink:href="#m6bc9e52359" y="238.499537"/>
     <use style="fill-opacity:0;stroke:#000000;" x="221.4" xlink:href="#m6bc9e52359" y="238.403076"/>
     <use style="fill-opacity:0;stroke:#000000;" x="221.4" xlink:href="#m6bc9e52359" y="232.365237"/>
     <use style="fill-opacity:0;stroke:#000000;" x="221.4" xlink:href="#m6bc9e52359" y="233.199479"/>
     <use style="fill-opacity:0;stroke:#000000;" x="221.4" xlink:href="#m6bc9e52359" y="238.562192"/>
     <use style="fill-opacity:0;stroke:#000000;" x="221.4" xlink:href="#m6bc9e52359" y="238.287056"/>
     <use style="fill-opacity:0;stroke:#000000;" x="221.4" xlink:href="#m6bc9e52359" y="238.193653"/>
     <use style="fill-opacity:0;stroke:#000000;" x="221.4" xlink:href="#m6bc9e52359" y="238.621596"/>
     <use style="fill-opacity:0;stroke:#000000;" x="221.4" xlink:href="#m6bc9e52359" y="238.30787"/>
     <use style="fill-opacity:0;stroke:#000000;" x="221.4" xlink:href="#m6bc9e52359" y="238.172814"/>
     <use style="fill-opacity:0;stroke:#000000;" x="221.4" xlink:href="#m6bc9e52359" y="233.118846"/>
     <use style="fill-opacity:0;stroke:#000000;" x="221.4" xlink:href="#m6bc9e52359" y="233.278901"/>
     <use style="fill-opacity:0;stroke:#000000;" x="221.4" xlink:href="#m6bc9e52359" y="238.541731"/>
     <use style="fill-opacity:0;stroke:#000000;" x="221.4" xlink:href="#m6bc9e52359" y="233.402771"/>
     <use style="fill-opacity:0;stroke:#000000;" x="221.4" xlink:href="#m6bc9e52359" y="233.743574"/>
     <use style="fill-opacity:0;stroke:#000000;" x="221.4" xlink:href="#m6bc9e52359" y="234.706605"/>
     <use style="fill-opacity:0;stroke:#000000;" x="221.4" xlink:href="#m6bc9e52359" y="234.841239"/>
     <use style="fill-opacity:0;stroke:#000000;" x="221.4" xlink:href="#m6bc9e52359" y="238.542181"/>
     <use style="fill-opacity:0;stroke:#000000;" x="221.4" xlink:href="#m6bc9e52359" y="238.203144"/>
     <use style="fill-opacity:0;stroke:#000000;" x="221.4" xlink:href="#m6bc9e52359" y="235.01565"/>
     <use style="fill-opacity:0;stroke:#000000;" x="221.4" xlink:href="#m6bc9e52359" y="235.151262"/>
     <use style="fill-opacity:0;stroke:#000000;" x="221.4" xlink:href="#m6bc9e52359" y="238.384388"/>
     <use style="fill-opacity:0;stroke:#000000;" x="221.4" xlink:href="#m6bc9e52359" y="232.989938"/>
     <use style="fill-opacity:0;stroke:#000000;" x="221.4" xlink:href="#m6bc9e52359" y="233.870712"/>
     <use style="fill-opacity:0;stroke:#000000;" x="221.4" xlink:href="#m6bc9e52359" y="233.436233"/>
     <use style="fill-opacity:0;stroke:#000000;" x="221.4" xlink:href="#m6bc9e52359" y="233.886249"/>
     <use style="fill-opacity:0;stroke:#000000;" x="221.4" xlink:href="#m6bc9e52359" y="234.106597"/>
     <use style="fill-opacity:0;stroke:#000000;" x="221.4" xlink:href="#m6bc9e52359" y="232.979318"/>
     <use style="fill-opacity:0;stroke:#000000;" x="221.4" xlink:href="#m6bc9e52359" y="237.744164"/>
     <use style="fill-opacity:0;stroke:#000000;" x="221.4" xlink:href="#m6bc9e52359" y="238.258573"/>
     <use style="fill-opacity:0;stroke:#000000;" x="221.4" xlink:href="#m6bc9e52359" y="238.167782"/>
     <use style="fill-opacity:0;stroke:#000000;" x="221.4" xlink:href="#m6bc9e52359" y="238.460845"/>
     <use style="fill-opacity:0;stroke:#000000;" x="221.4" xlink:href="#m6bc9e52359" y="236.902983"/>
     <use style="fill-opacity:0;stroke:#000000;" x="221.4" xlink:href="#m6bc9e52359" y="235.430228"/>
     <use style="fill-opacity:0;stroke:#000000;" x="221.4" xlink:href="#m6bc9e52359" y="235.205813"/>
     <use style="fill-opacity:0;stroke:#000000;" x="221.4" xlink:href="#m6bc9e52359" y="236.4554"/>
     <use style="fill-opacity:0;stroke:#000000;" x="221.4" xlink:href="#m6bc9e52359" y="237.952347"/>
     <use style="fill-opacity:0;stroke:#000000;" x="221.4" xlink:href="#m6bc9e52359" y="238.471472"/>
     <use style="fill-opacity:0;stroke:#000000;" x="221.4" xlink:href="#m6bc9e52359" y="237.559601"/>
     <use style="fill-opacity:0;stroke:#000000;" x="221.4" xlink:href="#m6bc9e52359" y="236.007284"/>
     <use style="fill-opacity:0;stroke:#000000;" x="221.4" xlink:href="#m6bc9e52359" y="235.80802"/>
     <use style="fill-opacity:0;stroke:#000000;" x="221.4" xlink:href="#m6bc9e52359" y="237.990491"/>
     <use style="fill-opacity:0;stroke:#000000;" x="221.4" xlink:href="#m6bc9e52359" y="238.290736"/>
     <use style="fill-opacity:0;stroke:#000000;" x="221.4" xlink:href="#m6bc9e52359" y="233.464838"/>
     <use style="fill-opacity:0;stroke:#000000;" x="221.4" xlink:href="#m6bc9e52359" y="233.394772"/>
     <use style="fill-opacity:0;stroke:#000000;" x="221.4" xlink:href="#m6bc9e52359" y="238.591521"/>
     <use style="fill-opacity:0;stroke:#000000;" x="221.4" xlink:href="#m6bc9e52359" y="238.01889"/>
     <use style="fill-opacity:0;stroke:#000000;" x="221.4" xlink:href="#m6bc9e52359" y="237.989818"/>
     <use style="fill-opacity:0;stroke:#000000;" x="221.4" xlink:href="#m6bc9e52359" y="237.537475"/>
     <use style="fill-opacity:0;stroke:#000000;" x="221.4" xlink:href="#m6bc9e52359" y="238.311275"/>
     <use style="fill-opacity:0;stroke:#000000;" x="221.4" xlink:href="#m6bc9e52359" y="238.426025"/>
     <use style="fill-opacity:0;stroke:#000000;" x="221.4" xlink:href="#m6bc9e52359" y="238.588705"/>
     <use style="fill-opacity:0;stroke:#000000;" x="221.4" xlink:href="#m6bc9e52359" y="237.849983"/>
     <use style="fill-opacity:0;stroke:#000000;" x="221.4" xlink:href="#m6bc9e52359" y="237.025375"/>
     <use style="fill-opacity:0;stroke:#000000;" x="221.4" xlink:href="#m6bc9e52359" y="237.741728"/>
     <use style="fill-opacity:0;stroke:#000000;" x="221.4" xlink:href="#m6bc9e52359" y="238.139749"/>
     <use style="fill-opacity:0;stroke:#000000;" x="221.4" xlink:href="#m6bc9e52359" y="238.443155"/>
     <use style="fill-opacity:0;stroke:#000000;" x="221.4" xlink:href="#m6bc9e52359" y="238.504171"/>
     <use style="fill-opacity:0;stroke:#000000;" x="221.4" xlink:href="#m6bc9e52359" y="235.055492"/>
     <use style="fill-opacity:0;stroke:#000000;" x="221.4" xlink:href="#m6bc9e52359" y="236.545473"/>
     <use style="fill-opacity:0;stroke:#000000;" x="221.4" xlink:href="#m6bc9e52359" y="238.2467"/>
     <use style="fill-opacity:0;stroke:#000000;" x="221.4" xlink:href="#m6bc9e52359" y="238.458495"/>
     <use style="fill-opacity:0;stroke:#000000;" x="221.4" xlink:href="#m6bc9e52359" y="238.363164"/>
     <use style="fill-opacity:0;stroke:#000000;" x="221.4" xlink:href="#m6bc9e52359" y="237.478926"/>
     <use style="fill-opacity:0;stroke:#000000;" x="221.4" xlink:href="#m6bc9e52359" y="236.888557"/>
     <use style="fill-opacity:0;stroke:#000000;" x="221.4" xlink:href="#m6bc9e52359" y="236.906178"/>
     <use style="fill-opacity:0;stroke:#000000;" x="221.4" xlink:href="#m6bc9e52359" y="238.367498"/>
     <use style="fill-opacity:0;stroke:#000000;" x="221.4" xlink:href="#m6bc9e52359" y="237.95012"/>
     <use style="fill-opacity:0;stroke:#000000;" x="221.4" xlink:href="#m6bc9e52359" y="237.282316"/>
     <use style="fill-opacity:0;stroke:#000000;" x="221.4" xlink:href="#m6bc9e52359" y="238.555508"/>
     <use style="fill-opacity:0;stroke:#000000;" x="221.4" xlink:href="#m6bc9e52359" y="236.170249"/>
     <use style="fill-opacity:0;stroke:#000000;" x="221.4" xlink:href="#m6bc9e52359" y="238.281308"/>
     <use style="fill-opacity:0;stroke:#000000;" x="221.4" xlink:href="#m6bc9e52359" y="237.930924"/>
     <use style="fill-opacity:0;stroke:#000000;" x="221.4" xlink:href="#m6bc9e52359" y="238.370992"/>
     <use style="fill-opacity:0;stroke:#000000;" x="221.4" xlink:href="#m6bc9e52359" y="237.040146"/>
     <use style="fill-opacity:0;stroke:#000000;" x="221.4" xlink:href="#m6bc9e52359" y="237.574486"/>
     <use style="fill-opacity:0;stroke:#000000;" x="221.4" xlink:href="#m6bc9e52359" y="237.86595"/>
     <use style="fill-opacity:0;stroke:#000000;" x="221.4" xlink:href="#m6bc9e52359" y="238.556293"/>
    </g>
   </g>
   <g id="line2d_14">
    <path clip-path="url(#p7d6fd07e93)" d="M 196.29 240.465979 
L 246.51 240.465979 
" style="fill:none;stroke:#ff7f0e;stroke-linecap:square;"/>
   </g>
   <g id="patch_3">
    <path d="M 54 252 
L 54 34.56 
" style="fill:none;stroke:#000000;stroke-linecap:square;stroke-linejoin:miter;stroke-width:0.8;"/>
   </g>
   <g id="patch_4">
    <path d="M 388.8 252 
L 388.8 34.56 
" style="fill:none;stroke:#000000;stroke-linecap:square;stroke-linejoin:miter;stroke-width:0.8;"/>
   </g>
   <g id="patch_5">
    <path d="M 54 252 
L 388.8 252 
" style="fill:none;stroke:#000000;stroke-linecap:square;stroke-linejoin:miter;stroke-width:0.8;"/>
   </g>
   <g id="patch_6">
    <path d="M 54 34.56 
L 388.8 34.56 
" style="fill:none;stroke:#000000;stroke-linecap:square;stroke-linejoin:miter;stroke-width:0.8;"/>
   </g>
  </g>
 </g>
 <defs>
  <clipPath id="p7d6fd07e93">
   <rect height="217.44" width="334.8" x="54" y="34.56"/>
  </clipPath>
 </defs>
</svg>
